PathFileType	4	(X/Y/Z)	HSS_walk4.trc
DataRate	CameraRate	NumFrames	NumMarkers	Units	OrigDataRate	OrigDataStartFrame	OrigNumFrames
120.0	120.0	4	44	mm	120.0	578	1155
Frame#	Time		R.Shoulder		Offset		L.Shoulder		R.Elbow		R.Wrist.Radial		R.Wrist		R.Hand		L.Elbow		L.Wrist.Radial		L.Wrist		L.Hand		R.Hip		V.Sacral		L.PSIS		L.Hip		R.Thigh.Upper		R.Thigh.Front		R.Thigh.Rear		X.Shell.Lower.Thigh.Right		R.Knee.Lateral		R.Shank.Upper		R.Shank.Front		R.Shank.Rear		X.Shell.Lower.Shank.Right		R.Ankle.Lateral		R.Heel		R.Toe		L.Thigh.Upper		L.Thigh.Front		L.Thigh.Rear		X.Shell.Lower.Thigh.Left		L.Knee.Lateral		L.Shank.Upper		L.Shank.Front		L.Shank.Rear		X.Shell.Lower.Shank.Left		L.Ankle.Lateral		L.Heel		L.Toe		R.Troc		L.Troc		R.PSIS		L.ASIS		R.ASIS
			X1	Y1	Z1	X2	Y2	Z2	X3	Y3	Z3	X4	Y4	Z4	X5	Y5	Z5	X6	Y6	Z6	X7	Y7	Z7	X8	Y8	Z8	X9	Y9	Z9	X10	Y10	Z10	X11	Y11	Z11	X12	Y12	Z12	X13	Y13	Z13	X14	Y14	Z14	X15	Y15	Z15	X16	Y16	Z16	X17	Y17	Z17	X18	Y18	Z18	X19	Y19	Z19	X20	Y20	Z20	X21	Y21	Z21	X22	Y22	Z22	X23	Y23	Z23	X24	Y24	Z24	X25	Y25	Z25	X26	Y26	Z26	X27	Y27	Z27	X28	Y28	Z28	X29	Y29	Z29	X30	Y30	Z30	X31	Y31	Z31	X32	Y32	Z32	X33	Y33	Z33	X34	Y34	Z34	X35	Y35	Z35	X36	Y36	Z36	X37	Y37	Z37	X38	Y38	Z38	X39	Y39	Z39	X40	Y40	Z40	X41	Y41	Z41	X42	Y42	Z42	X43	Y43	Z43	X44	Y44	Z44

578	4.80833	-525.92230	1473.25122	-27.05082	-627.24408	1381.48804	-316.76147	-498.39661	1475.50684	-398.18008	-563.81012	1108.88464	25.17791	-450.10809	889.79535	86.28676	-412.85291	898.24573	23.06560	-399.24643	818.04626	78.48518	-529.01324	1112.31836	-445.28894	-424.85187	898.58813	-495.08710	-392.19690	894.02142	-429.85892	-380.08688	824.35114	-484.46411	-507.22681	1024.80225	-59.78696	-613.69592	1010.76056	-219.64499	-607.39447	1020.01978	-260.43600	-477.26996	1032.02148	-354.22849	-393.51697	691.49011	-23.54908	-348.23233	666.23938	-32.66309	-405.21078	647.83575	-16.14430	-366.32404	625.14502	-28.04593	-402.20819	510.80872	-44.14458	-510.67181	416.74197	-17.95118	-516.64240	363.47794	-36.22734	-554.11725	411.21667	-41.85800	-564.58502	365.42358	-47.03083	-721.14551	220.67047	-113.80008	-761.43115	226.47607	-177.59793	-666.16925	76.61438	-92.18102	-379.05710	691.55164	-354.96457	-355.09134	647.63428	-326.14514	-401.87155	650.65015	-368.44623	-372.95593	621.17474	-350.74173	-426.19595	499.34137	-323.73090	-464.47571	297.13010	-353.01163	-441.22739	272.63763	-329.79315	-499.48181	261.67606	-341.38947	-478.81577	229.14641	-338.36142	-488.28857	68.90277	-282.75159	-548.16522	33.78755	-237.53723	-347.34995	31.71475	-268.44827	-485.24048	864.55762	-30.41554	-459.87830	890.29279	-389.43591	-617.78241	1015.62421	-174.85478	-416.92987	995.59021	-308.41119	-449.63596	986.61084	-89.06021
579	4.81667	-517.02734	1474.23352	-27.21527	-616.98407	1382.51245	-317.76886	-487.99448	1476.84412	-398.05624	-559.06702	1110.58215	24.14906	-450.29913	889.51593	86.93421	-412.39902	897.16919	23.74081	-400.89307	816.72620	79.58492	-512.53699	1112.98303	-446.57010	-401.98749	902.06201	-494.85568	-369.27679	898.62976	-429.38068	-354.53107	829.59100	-484.29382	-497.46939	1026.27075	-60.04288	-604.53394	1011.46985	-219.63249	-598.09778	1020.29590	-260.19797	-468.10056	1032.45947	-354.60410	-378.07501	695.49603	-23.53701	-332.46381	671.13141	-33.24654	-388.79169	651.61206	-16.03050	-349.66675	629.65692	-28.28211	-383.72610	514.20514	-44.49433	-489.79865	416.97589	-17.99879	-494.32101	363.59552	-36.23546	-533.14410	410.10120	-42.01053	-542.28168	364.05536	-47.06374	-695.12665	215.06628	-113.30666	-736.14398	218.37485	-177.26828	-633.45087	74.30720	-90.65559	-373.44669	690.64862	-355.55789	-349.55417	646.37738	-327.02240	-396.83453	650.07782	-368.65201	-368.22351	620.21362	-351.08447	-422.57034	498.86966	-323.82858	-462.10962	296.85767	-353.06961	-439.22607	272.23920	-330.02405	-497.61719	261.52078	-341.55811	-477.11127	228.94272	-338.32248	-488.00174	68.91433	-282.58939	-548.20007	33.85974	-237.49574	-347.24686	31.61799	-268.35748	-473.39609	868.82861	-30.72014	-450.05176	889.60339	-388.86713	-608.13049	1016.56946	-174.82922	-407.94562	996.06433	-309.29111	-437.57031	989.04584	-89.68227
580	4.82500	-508.19400	1475.09741	-27.50736	-606.71313	1383.43372	-318.70306	-477.28699	1477.80444	-398.13232	-554.25751	1112.15356	23.07244	-450.50702	889.30847	87.60658	-411.64365	895.98444	24.64725	-402.53104	815.36749	80.87223	-495.98499	1113.85535	-447.79913	-379.11719	905.76270	-494.75208	-347.11557	903.84930	-429.22089	-329.24286	835.22314	-484.20200	-487.80017	1027.55298	-60.27069	-594.81628	1011.91376	-219.35182	-588.58203	1020.78101	-260.04492	-458.77747	1032.77478	-354.75040	-363.06006	699.25787	-23.74123	-317.10556	675.75311	-34.11835	-372.71075	655.22314	-16.13210	-333.37646	633.97015	-28.89767	-365.79102	517.49591	-44.72416	-468.90820	416.53604	-17.93322	-471.81564	362.95743	-36.46590	-512.13135	408.49185	-41.49806	-519.99084	362.12064	-46.85144	-668.60626	208.65533	-113.09718	-710.50543	209.53661	-176.93959	-599.28436	72.11823	-89.42199	-367.74338	689.78766	-355.79962	-344.48849	645.34491	-327.51682	-392.03104	649.55164	-368.64633	-363.58398	619.24408	-351.40372	-419.37250	498.46466	-323.95905	-460.35962	296.65594	-352.90717	-437.54596	271.86813	-329.98618	-495.86633	261.50830	-341.61563	-475.64777	228.84906	-338.30328	-487.81229	68.93159	-282.47968	-548.22559	34.00394	-237.40685	-347.17508	31.53796	-268.26974	-460.86801	872.55743	-31.87409	-442.22363	888.99500	-388.93234	-598.51447	1017.33099	-174.68602	-398.86600	996.39447	-310.13290	-426.82855	990.45868	-90.44598
581	4.83333	-499.34891	1475.83740	-27.77922	-596.43945	1384.18323	-319.70895	-467.01782	1479.00745	-397.92560	-549.37543	1113.57507	22.07180	-450.81482	889.05603	88.24183	-408.31674	895.70563	24.60985	-404.15366	814.15436	82.19249	-480.03381	1114.54492	-449.43536	-356.45972	909.82452	-494.52005	-324.68619	908.98157	-428.88293	-304.25595	841.14087	-484.14767	-479.72006	1028.26477	-60.47396	-585.71228	1012.18457	-219.13057	-579.22058	1020.93701	-259.78207	-449.76520	1032.82117	-354.95377	-348.33286	702.86328	-23.82220	-302.17838	680.27942	-34.97587	-357.08096	658.72974	-16.05363	-317.67172	638.17578	-29.47727	-348.23273	520.42676	-45.24213	-448.04346	415.61606	-17.70839	-449.40891	362.18747	-36.76728	-491.32645	406.34439	-40.75338	-497.57639	359.79196	-46.65099	-641.34375	201.34187	-112.78840	-684.05048	199.55264	-176.34927	-564.70807	69.72166	-87.94980	-362.25906	688.93896	-356.08481	-339.33319	644.09583	-327.86676	-387.13397	648.97980	-368.61249	-359.07928	618.31354	-351.63559	-416.20187	498.05472	-324.02991	-458.62296	296.36987	-352.95709	-436.06592	271.49649	-329.86484	-494.44281	261.46863	-341.59070	-474.34384	228.71352	-338.33337	-487.73526	68.94379	-282.36945	-548.25153	34.11592	-237.36755	-347.15424	31.44158	-268.18225	-449.30106	875.23767	-32.09737	-434.42758	888.57397	-389.08615	-588.80829	1017.91522	-174.56084	-390.47928	996.54425	-311.30585	-416.51733	991.69135	-90.64767
